<svg width="17" height="18" viewBox="0 0 17 18" fill="none" xmlns="http://www.w3.org/2000/svg">
<path fill-rule="evenodd" clip-rule="evenodd" d="M3.42594 15.4916C3.36415 15.4335 3.30305 15.3742 3.24266 15.3138C0.0545302 12.1257 0.0545307 6.95672 3.24266 3.76861C6.43077 0.58047 16.5894 0.367188 16.5894 0.367188C16.5894 0.367188 17.976 12.1257 14.7879 15.3138C11.9564 18.1453 7.56252 18.4621 4.38148 16.2641L6.94465 13.1187L11.0421 12.234L7.69738 11.8997L9.823 9.73536L12.2426 9.20531L10.3293 8.6387L12.2426 5.1872L9.52115 8.23975L8.47022 6.75675L8.84017 9.20531L6.94465 11.3422L6.06599 8.63867L6.06599 12.234L3.42594 15.4916Z" fill="#63BC5A"/>
</svg>
