<svg width="18" height="16" viewBox="0 0 18 16" fill="none" xmlns="http://www.w3.org/2000/svg">
<path fill-rule="evenodd" clip-rule="evenodd" d="M0.00179686 7.94821C-0.000597818 7.94414 -0.00059902 7.93907 0.00179366 7.93496L4.52795 0.201792C4.5303 0.19778 4.53463 0.195313 4.53927 0.195313L13.5103 0.195313C13.515 0.195313 13.5193 0.197802 13.5217 0.201848L17.9982 7.93503C18.0006 7.93907 18.0006 7.9441 17.9982 7.94814L13.5217 15.6726C13.5193 15.6767 13.515 15.6792 13.5103 15.6792H4.53927C4.53463 15.6792 4.5303 15.6767 4.52795 15.6727L0.00179686 7.94821ZM13.1701 7.93725C13.1701 10.2396 11.3037 12.106 9.00141 12.106C6.69909 12.106 4.83268 10.2396 4.83268 7.93725C4.83268 5.6349 6.69909 3.76852 9.00141 3.76852C11.3037 3.76852 13.1701 5.6349 13.1701 7.93725Z" fill="#5A8EA2"/>
</svg>
