<svg width="18" height="18" viewBox="0 0 18 18" fill="none" xmlns="http://www.w3.org/2000/svg">
<path fill-rule="evenodd" clip-rule="evenodd" d="M8.06447 15.9205C8.40644 15.9729 8.75666 16 9.11329 16C12.9102 16 15.9883 12.922 15.9883 9.12502C15.9883 5.32804 12.9102 2.25 9.11329 2.25C8.85855 2.25 8.607 2.26386 8.35947 2.29086C10.243 3.71781 11.4883 6.18968 11.4883 9C11.4883 11.9545 10.1119 14.535 8.06447 15.9205ZM8.98827 18C13.9588 18 17.9883 13.9706 17.9883 9C17.9883 4.02943 13.9588 0 8.98827 0C4.01771 0 -0.0117188 4.02943 -0.0117188 9C-0.0117188 13.9706 4.01771 18 8.98827 18Z" fill="#5A5465"/>
</svg>
