<svg width="18" height="18" viewBox="0 0 18 18" fill="none" xmlns="http://www.w3.org/2000/svg">
<path fill-rule="evenodd" clip-rule="evenodd" d="M16.0286 14.9479C16.0286 14.9479 13.7589 16.7682 9.24233 16.0149C5.81565 15.4434 3.98802 11.666 3.98802 9.63559C3.98802 4.82164 7.55096 3.72614 9.95976 3.72614C12.3685 3.72614 13.9399 6.07458 13.9399 7.89286C13.9399 9.71114 12.6539 11.3015 10.6526 11.3015C8.65125 11.3015 8.05851 9.89652 8.05851 8.60477C8.05851 7.31306 9.1036 6.85796 10.0567 6.85796C11.0098 6.85796 11.3362 7.67169 11.3362 8.37105C11.3362 9.07045 10.7936 9.3209 10.341 9.3209C9.88836 9.3209 9.84361 9.09257 9.67039 8.85259C9.49714 8.61265 9.89132 7.70435 9.24233 7.70435C8.59335 7.70435 8.47237 8.74853 8.47237 8.74853C8.47237 8.74853 8.70897 10.7641 10.6526 10.7294C12.5962 10.6946 13.5182 9.19199 13.2502 7.70435C12.9823 6.21668 11.5385 4.63588 9.00467 4.95531C6.47082 5.27474 5.43628 7.83496 5.89229 10.571C6.3483 13.307 9.62603 14.8923 12.2032 14.3219C14.7803 13.7516 17.3471 11.8858 17.3471 7.15546C17.3471 2.42504 13.2502 -0.418366 8.36511 0.0502432C3.47997 0.51885 0.447503 4.78976 0.641608 9.92134C0.835713 15.0529 5.70498 17.8477 9.82244 17.9918C13.9399 18.1358 16.4641 15.7524 16.4641 15.7524C16.4641 15.7524 17.0318 15.2461 16.8092 14.8508C16.5866 14.4555 16.0286 14.9479 16.0286 14.9479Z" fill="#FA7179"/>
</svg>
